<?xml version="1.0" encoding="utf-8"?>
<!-- Generator: Adobe Illustrator 16.0.0, SVG Export Plug-In . SVG Version: 6.00 Build 0)  -->
<!DOCTYPE svg PUBLIC "-//W3C//DTD SVG 1.1//EN" "http://www.w3.org/Graphics/SVG/1.1/DTD/svg11.dtd">
<svg version="1.1" xmlns="http://www.w3.org/2000/svg" xmlns:xlink="http://www.w3.org/1999/xlink" x="0px" y="0px" width="864px"
	 height="1728px" viewBox="0 0 864 1728" enable-background="new 0 0 864 1728" xml:space="preserve">
<g id="Layer_1">
</g>
<g id="Layer_2">
</g>
<g id="Layer_3">
	<path fill="#F0047F" stroke="#000000" stroke-miterlimit="10" d="M432,1739.6201c-128.5825,0-248.8589-38.6533-357.4883-114.8848
		c-78.7886-55.292-147.2104-128.5234-203.3652-217.6611c-83.7236-132.8848-140.2012-306.1582-159.0278-487.9004
		c-14.5161-140.0762,6.8438-261.0234,27.3184-337.8193c51.9463-194.8379,172.6182-365.7168,331.0737-468.8218
		C176.73,43.4106,308.4878,3.7671,432,3.7671c123.5049,0,255.2656,39.6445,361.498,108.769
		c158.4512,103.1118,279.1191,273.9937,331.0615,468.8296c20.4775,76.7886,41.8398,197.7295,27.3213,337.8149
		c-18.8223,181.7217-75.2959,354.9922-159.0176,487.8936c-56.1699,89.1377-124.5889,162.3643-203.3564,217.6484
		C680.8633,1700.9629,560.5801,1739.6201,432,1739.6201z"/>
	<path fill="#F0047F" stroke="#000000" stroke-miterlimit="10" d="M432,1732.5332c-127.0967,0-246.0034-38.2197-353.4175-113.5986
		c-78.0151-54.749-145.7891-127.2998-201.4399-215.6377c-83.1548-131.9814-139.2583-304.1729-157.9751-484.8535
		c-14.4048-139.0049,6.7954-259.042,27.1167-335.2632c51.501-193.1665,171.0859-362.5459,328.0918-464.7075
		C179.4746,50.0796,309.8237,10.8535,432,10.8535c122.1689,0,252.5205,39.2271,357.6328,107.6226
		c157.002,102.1685,276.582,271.5503,328.0791,464.7148c20.3242,76.2148,41.5273,196.2466,27.1201,335.2593
		c-18.7119,180.6592-74.8115,352.8486-157.9648,484.8467c-55.665,88.3359-123.4355,160.8828-201.4316,215.625
		C678.0068,1694.3096,559.0938,1732.5332,432,1732.5332z"/>
	<path fill="#F0047F" stroke="#000000" stroke-miterlimit="10" d="M432,1725.4473c-125.6118,0-243.1489-37.7881-349.3467-112.3135
		c-77.2412-54.2061-144.3677-126.0762-199.5151-213.6143c-82.5854-131.0791-138.3149-302.1875-156.9219-481.8057
		c-14.2939-137.9351,6.7471-257.062,26.9155-332.708c51.0552-191.4951,169.5527-359.375,325.1094-460.5933
		C182.2202,56.748,311.1602,17.9404,432,17.9404c120.833,0,249.7764,38.8086,353.7676,106.4756
		c155.5518,101.2246,274.0459,269.1069,325.0977,460.6006c20.1709,75.6401,41.2148,194.7622,26.918,332.7031
		c-18.6016,179.5977-74.3281,350.7041-156.9121,481.7998c-55.1611,87.5371-122.2852,159.4023-199.5068,213.6025
		C675.1514,1687.6553,557.6094,1725.4473,432,1725.4473z"/>
	<path fill="#F0047F" stroke="#000000" stroke-miterlimit="10" d="M432,1718.3604c-124.1255,0-240.293-37.3545-345.2759-111.0273
		c-76.4673-53.6631-142.9463-124.8525-197.5898-211.5908c-82.0166-130.1758-137.3721-300.2021-155.8691-478.7588
		c-14.1826-136.8618,6.6987-255.0796,26.7139-330.1519c50.6099-189.8242,168.0205-356.2041,322.127-456.479
		C184.9644,63.417,312.4961,25.0269,432,25.0269c119.4971,0,247.0312,38.3911,349.9023,105.3291
		c154.1025,100.2812,271.5088,266.6641,322.1152,456.4863c20.0176,75.0649,40.9023,193.2769,26.7168,330.147
		c-18.4922,178.5361-73.8438,348.5605-155.8594,478.7529c-54.6572,86.7373-121.1328,157.9219-197.582,211.5791
		C672.2959,1681.002,556.123,1718.3604,432,1718.3604z"/>
	<path fill="#F0047F" stroke="#000000" stroke-miterlimit="10" d="M432,1711.2744c-122.6401,0-237.438-36.9229-341.2051-109.7422
		c-75.6938-53.1201-141.5249-123.6289-195.6646-209.5674c-81.4478-129.2734-136.4292-298.2178-154.8159-475.7109
		c-14.0718-135.7905,6.6499-253.0991,26.5117-327.5972c50.1646-188.1519,166.4883-353.0322,319.1445-452.3643
		C187.7095,70.0854,313.8325,32.1138,432,32.1138c118.1611,0,244.2871,37.9731,346.0371,104.1821
		c152.6533,99.3379,268.9727,264.2212,319.1328,452.3721c19.8643,74.4907,40.5898,191.7925,26.5156,327.5908
		c-18.3828,177.4756-73.3604,346.418-154.8066,475.7061c-54.1533,85.9375-119.9814,156.4414-195.6572,209.5566
		C669.4414,1674.3477,554.6377,1711.2744,432,1711.2744z"/>
	<path fill="#F0047F" stroke="#000000" stroke-miterlimit="10" d="M432,1704.1875c-121.1543,0-234.5825-36.4893-337.1343-108.4561
		c-74.9199-52.5771-140.103-122.4043-193.7393-207.5439c-80.8784-128.3691-135.4863-296.2305-153.7632-472.6641
		c-13.9609-134.7202,6.6021-251.1182,26.3105-325.041c49.7188-186.481,164.9556-349.8618,316.1621-448.25
		C190.4541,76.7544,315.1685,39.2002,432,39.2002c116.8252,0,241.542,37.5552,342.1719,103.0356
		c151.2031,98.394,266.4355,261.7773,316.1504,448.2578c19.7109,73.9131,40.2783,190.3037,26.3145,325.0347
		c-18.2725,176.4141-72.877,344.2744-153.7539,472.6592c-53.6484,85.1367-118.8291,154.9609-193.7324,207.5332
		C666.5859,1667.6943,553.1533,1704.1875,432,1704.1875z"/>
	<path fill="#F0047F" stroke="#000000" stroke-miterlimit="10" d="M432,1697.1016c-119.6685,0-231.7275-36.0576-333.0635-107.1709
		c-74.146-52.0332-138.6816-121.1807-191.814-205.5205c-80.3096-127.4658-134.5435-294.2451-152.7104-469.6162
		c-13.8501-133.6504,6.5537-249.1382,26.1089-322.4858c49.2734-184.8096,163.4233-346.6909,313.1802-444.1357
		C193.1992,83.4229,316.5044,46.2866,432,46.2866c115.4893,0,238.7979,37.1377,338.3066,101.8892
		c149.7539,97.4502,263.8984,259.334,313.168,444.1436c19.5586,73.3394,39.9658,188.8198,26.1133,322.4785
		c-18.1621,175.3525-72.3926,342.1309-152.7012,469.6123c-53.1445,84.3369-117.6777,153.4805-191.8076,205.5107
		C663.7314,1661.041,551.667,1697.1016,432,1697.1016z"/>
	<path fill="#F0047F" stroke="#000000" stroke-miterlimit="10" d="M432,1690.0146c-118.1826,0-228.8716-35.624-328.9927-105.8848
		c-73.3735-51.4912-137.2612-119.958-189.8887-203.4971c-79.7407-126.5625-133.6006-292.2598-151.6577-466.5693
		c-13.7388-132.5781,6.5054-247.1562,25.9077-319.9297c48.8276-183.1382,161.8901-343.52,310.1973-440.0215
		C195.9448,90.0913,317.8418,53.3735,432,53.3735c114.1523,0,236.0518,36.7188,334.4414,100.7422
		c148.3037,96.5063,261.3623,256.8911,310.1855,440.0288c19.4053,72.7646,39.6533,187.3354,25.9121,319.9229
		c-18.0527,174.291-71.9092,339.9873-151.6484,466.5654c-52.6406,83.5371-116.5264,152-189.8828,203.4873
		C660.875,1654.3877,550.1816,1690.0146,432,1690.0146z"/>
	<path fill="#F0047F" stroke="#000000" stroke-miterlimit="10" d="M432,1682.9287c-116.6973,0-226.0171-35.1924-324.9219-104.5996
		c-72.6001-50.9482-135.8398-118.7344-187.9634-201.4736c-79.1719-125.6592-132.6577-290.2744-150.605-463.5215
		c-13.6279-131.5073,6.457-245.1758,25.7061-317.3745c48.3823-181.4673,160.3574-340.3491,307.2153-435.9072
		C198.6899,96.7598,319.1782,60.46,432,60.46c112.8164,0,233.3066,36.3013,330.5762,99.5952
		c146.8535,95.5635,258.8252,254.4482,307.2041,435.915c19.252,72.1904,39.3398,185.8511,25.71,317.3667
		c-17.9424,173.2295-71.4258,337.8438-150.5957,463.5186c-52.1367,82.7373-115.375,150.5195-187.958,201.4648
		C658.0205,1647.7334,548.6963,1682.9287,432,1682.9287z"/>
	<path fill="#F0047F" stroke="#000000" stroke-miterlimit="10" d="M432,1675.8418c-115.2119,0-223.1621-34.7598-320.8511-103.3135
		c-71.8262-50.4053-134.4185-117.5098-186.0381-199.4502c-78.6025-124.7559-131.7148-288.2891-149.5522-460.4746
		c-13.5171-130.4375,6.4092-243.1953,25.5049-314.8184C-151,417.9888-40.1113,260.6064,105.2959,165.9922
		C201.4351,103.4287,320.5146,67.5464,432,67.5464c111.4805,0,230.5615,35.8833,326.7109,98.4487
		C904.1152,260.6147,1015,418.0005,1062.9326,597.7959c19.0986,71.6157,39.0273,184.3672,25.5088,314.8105
		c-17.833,172.1689-70.9424,335.7012-149.543,460.4717c-51.6328,81.9385-114.2227,149.0391-186.0332,199.4414
		C655.1641,1641.0801,547.21,1675.8418,432,1675.8418z"/>
	<path fill="#F0047F" stroke="#000000" stroke-miterlimit="10" d="M432,1668.7559c-113.7266,0-220.3071-34.3271-316.7803-102.0283
		c-71.0527-49.8633-132.9971-116.2871-184.1128-197.4268c-78.0337-123.8535-130.772-286.3047-148.4995-457.4268
		c-13.4058-129.3677,6.3608-241.2153,25.3032-312.2632c47.4912-178.125,157.2925-334.0078,301.25-427.6787
		C204.1802,110.0972,321.8511,74.6333,432,74.6333c110.1445,0,227.8164,35.4648,322.8457,97.3013
		c143.9541,93.6768,253.752,249.562,301.2402,427.6865c18.9443,71.042,38.7139,182.8838,25.3066,312.2549
		c-17.7227,171.1064-70.458,333.5566-148.4902,457.4248c-51.1279,81.1377-113.0713,147.5586-184.1084,197.4189
		C652.3096,1634.4258,545.7246,1668.7559,432,1668.7559z"/>
	<path fill="#F0047F" stroke="#000000" stroke-miterlimit="10" d="M432,1661.6689c-112.2412,0-217.4521-33.8945-312.7095-100.7422
		c-70.2783-49.3193-131.5752-115.0625-182.1875-195.4033c-77.4644-122.9492-129.8291-284.3174-147.4468-454.3799
		c-13.2949-128.2969,6.3125-239.2339,25.1021-309.707c47.0454-176.4536,155.7598-330.8369,298.2676-423.5645
		C206.9253,116.7661,323.187,81.7197,432,81.7197c108.8076,0,225.0713,35.0469,318.9805,96.1548
		c142.5049,92.7329,251.2158,247.1191,298.2578,423.5723c18.792,70.4683,38.4014,181.4009,25.1055,309.6987
		c-17.6133,170.0459-69.9746,331.4141-147.4375,454.3779c-50.624,80.3379-111.9189,146.0781-182.1836,195.3955
		C649.4531,1627.7725,544.2383,1661.6689,432,1661.6689z"/>
	<path fill="#F0047F" stroke="#000000" stroke-miterlimit="10" d="M432,1654.583c-110.7559,0-214.5967-33.4619-308.6387-99.457
		C53.8569,1506.3496-6.792,1441.2871-56.9014,1361.7461c-76.8955-122.0459-128.8857-282.333-146.3936-451.332
		c-13.1841-127.2256,6.2642-237.2534,24.9009-307.1519C-131.7944,428.48-24.167,275.5967,116.8906,183.812
		C209.6704,123.4346,324.5234,88.8066,432,88.8066c107.4707,0,222.3262,34.6289,315.1152,95.0073
		c141.0547,91.79,248.6787,244.6763,295.2764,419.458c18.6377,69.894,38.0879,179.917,24.9033,307.1431
		c-17.5039,168.9844-69.4912,329.2705-146.3848,451.3311c-50.1191,79.5381-110.7676,144.5977-180.2588,193.3721
		C646.5986,1621.1182,542.7529,1654.583,432,1654.583z"/>
	<path fill="#F0047F" stroke="#000000" stroke-miterlimit="10" d="M432,1647.4961c-109.2705,0-211.7417-33.0293-304.5679-98.1709
		C58.7012,1501.0918-1.3003,1436.71-50.9053,1357.9688c-76.3262-121.1426-127.9429-280.3467-145.3408-448.2852
		c-13.0728-126.1533,6.2158-235.2715,24.6992-304.5957c46.1543-173.1108,152.6948-324.4951,292.3027-415.3359
		C212.4155,130.1035,325.8599,95.8931,432,95.8931c106.1348,0,219.5811,34.2109,311.25,93.8608
		c139.6055,90.8462,246.1426,242.2334,292.2939,415.3438c18.4844,69.3169,37.7764,178.4282,24.7021,304.5869
		c-17.3936,167.9229-69.0068,327.127-145.332,448.2842c-49.6152,78.7383-109.6152,143.1172-178.334,191.3486
		C643.7422,1614.4648,541.2666,1647.4961,432,1647.4961z"/>
	<path fill="#F0047F" stroke="#000000" stroke-miterlimit="10" d="M432,1640.4102c-107.7852,0-208.8867-32.5977-300.4971-96.8857
		c-67.9575-47.6904-127.311-111.3906-176.4126-189.333c-75.7568-120.2393-126.9995-278.3613-144.2876-445.2383
		c-12.9614-125.082,6.168-233.29,24.4976-302.0396c45.709-171.4395,151.1626-321.3242,289.3208-411.2217
		C215.1606,136.772,327.1963,102.9795,432,102.9795c104.7988,0,216.8359,33.793,307.3848,92.7139
		c138.1562,89.9033,243.6055,239.7905,289.3115,411.2295c18.332,68.7432,37.4639,176.9448,24.501,302.0312
		c-17.2832,166.8613-68.5234,324.9834-144.2793,445.2373c-49.1113,77.9385-108.4639,141.6367-176.4092,189.3262
		C640.8867,1607.8105,539.7812,1640.4102,432,1640.4102z"/>
	<path fill="#F0047F" stroke="#000000" stroke-miterlimit="10" d="M432,1633.3232c-106.2993,0-206.0317-32.1641-296.4263-95.5996
		c-67.1841-47.1475-125.8901-110.168-174.4873-187.3096c-75.188-119.3359-126.0566-276.376-143.2349-442.1914
		c-12.8506-124.0112,6.1196-231.3091,24.2964-299.4834c45.2632-169.7681,149.6294-318.1533,286.3379-407.1074
		C217.9058,143.4409,328.5327,110.0664,432,110.0664c103.4619,0,214.0908,33.375,303.5195,91.5669
		c136.707,88.96,241.0693,237.3477,286.3291,407.1152c18.1787,68.1675,37.1514,175.459,24.2998,299.4751
		c-17.1738,165.8008-68.04,322.8408-143.2266,442.1904c-48.6074,77.1387-107.3125,140.1562-174.4844,187.3027
		C638.0312,1601.1572,538.2949,1633.3232,432,1633.3232z"/>
	<path fill="#F0047F" stroke="#000000" stroke-miterlimit="10" d="M432,1626.2373c-104.814,0-203.1768-31.7324-292.3555-94.3145
		c-66.4102-46.6045-124.4688-108.9443-172.5625-185.2861c-74.6191-118.4336-125.1138-274.3906-142.1816-439.1436
		c-12.7393-122.9404,6.0713-229.3286,24.0952-296.9282c44.8174-168.0967,148.0962-314.9824,283.355-402.9932
		C220.6514,150.1094,329.8691,117.1533,432,117.1533c102.126,0,211.3457,32.9565,299.6553,90.4194
		c135.2559,88.0166,238.5312,234.9048,283.3467,403.001c18.0244,67.5933,36.8379,173.9751,24.0977,296.9194
		c-17.0645,164.7393-67.5557,320.6973-142.1738,439.1436c-48.1035,76.3389-106.1602,138.6758-172.5596,185.2793
		C635.1758,1594.5029,536.8105,1626.2373,432,1626.2373z"/>
	<path fill="#F0047F" stroke="#000000" stroke-miterlimit="10" d="M432,1619.1504c-103.3281,0-200.3213-31.2988-288.2847-93.0283
		c-65.6362-46.0615-123.0469-107.7197-170.6372-183.2627c-74.0503-117.5303-124.1709-272.4062-141.1289-436.0967
		c-12.6284-121.8706,6.0234-227.3477,23.8936-294.3721c44.3716-166.4248,146.5635-311.811,280.373-398.8789
		c87.1802-56.7334,194.9893-89.272,295.7842-89.272c100.7891,0,208.6006,32.5386,295.79,89.2729
		c133.8066,87.0732,235.9951,232.4619,280.3643,398.8867c17.8721,67.0195,36.5254,172.4917,23.8965,294.3633
		c-16.9541,163.6777-67.0723,318.5537-141.1211,436.0967c-47.5996,75.54-105.0088,137.1953-170.6348,183.2559
		C632.3203,1587.8496,535.3242,1619.1504,432,1619.1504z"/>
	<path fill="#F0047F" stroke="#000000" stroke-miterlimit="10" d="M432,1612.0645c-101.8433,0-197.4663-30.8672-284.2144-91.7432
		c-64.8623-45.5186-121.625-106.4961-168.7119-181.2393c-73.481-116.6279-123.2275-270.4209-140.0757-433.0498
		c-12.5176-120.7988,5.9751-225.3662,23.6924-291.8159C-93.3838,449.4624,7.7212,305.5762,140.0811,219.4512
		C226.1411,163.4468,332.5415,131.3267,432,131.3267c99.4531,0,205.8555,32.1206,291.9258,88.1255
		c132.3555,86.1304,233.457,230.019,277.3818,394.7729c17.7188,66.4448,36.2129,171.0073,23.6943,291.8071
		c-16.8447,162.6172-66.5889,316.4102-140.0684,433.0498c-47.0957,74.7402-103.8574,135.7158-168.71,181.2334
		C629.4658,1581.1953,533.8398,1612.0645,432,1612.0645z"/>
	<path fill="#F0047F" stroke="#000000" stroke-miterlimit="10" d="M432,1604.9775c-100.3569,0-194.6108-30.4336-280.1436-90.457
		c-64.0884-44.9756-120.2036-105.2725-166.7866-179.2158c-72.9121-115.7246-122.2847-268.4355-139.0229-430.0029
		c-12.4062-119.7271,5.9268-223.3848,23.4907-289.2598c43.4805-163.0825,143.4985-305.4692,274.4082-390.6509
		c84.9399-55.2754,189.9316-86.978,288.0542-86.978c98.1162,0,203.1104,31.7026,288.0605,86.979
		C850.9668,310.5786,950.9814,452.9683,994.46,616.0508c17.5654,65.8701,35.9004,169.5229,23.4932,289.251
		c-16.7344,161.5547-66.1045,314.2666-139.0156,430.0029c-46.5908,73.9395-102.7051,134.2344-166.7852,179.21
		C626.6104,1574.542,532.3535,1604.9775,432,1604.9775z"/>
	<path fill="#F0047F" stroke="#000000" stroke-miterlimit="10" d="M432,1597.8916c-98.8716,0-191.7559-30.002-276.0728-89.1719
		C92.6123,1464.2871,37.145,1404.6709-8.9346,1331.5273c-72.3428-114.8213-121.3418-266.4512-137.9697-426.9561
		c-12.2949-118.6553,5.8784-221.4028,23.2891-286.7036C-80.5801,456.4561,18.3511,315.5688,147.811,231.3306
		C231.6309,176.7842,335.2139,145.5,432,145.5c96.7803,0,200.3662,31.2842,284.1963,85.8315
		c129.4561,84.2437,228.3838,225.1338,271.417,386.5449c17.4121,65.2959,35.5869,168.0386,23.291,286.6948
		c-16.624,160.4932-65.6211,312.1221-137.9629,426.9561c-46.0859,73.1396-101.5527,132.7539-164.8604,177.1875
		C623.7559,1567.8877,530.8691,1597.8916,432,1597.8916z"/>
	<path fill="#F0047F" stroke="#000000" stroke-miterlimit="10" d="M432,1590.8047c-97.3853,0-188.8999-29.5684-272.002-87.8857
		C97.458,1459.0303,42.6382,1400.0957-2.9385,1327.75c-71.7744-113.9189-120.3989-264.4668-136.917-423.9092
		c-12.1841-117.5854,5.8306-219.4224,23.0879-284.1475c42.5894-159.7402,140.4331-299.1279,268.4434-382.4229
		C234.376,183.4526,336.5503,152.5864,432,152.5864c95.4443,0,197.6211,30.8667,280.3311,84.6851
		c128.0068,83.3003,225.8467,222.6909,268.4346,382.4307c17.2588,64.7212,35.2744,166.5547,23.0898,284.1387
		c-16.5146,159.4316-65.1367,309.9785-136.9102,423.9092c-45.582,72.3398-100.4014,131.2734-162.9355,175.1641
		C620.9004,1561.2344,529.3838,1590.8047,432,1590.8047z"/>
	<path fill="#F0047F" stroke="#000000" stroke-miterlimit="10" d="M432,1583.7188c-95.8999,0-186.0449-29.1367-267.9312-86.6006
		c-61.7661-43.3457-115.9385-101.5996-161.0117-173.1455c-71.2051-113.0166-119.4556-262.4814-135.8638-420.8623
		c-12.0728-116.5132,5.7822-217.4409,22.8862-281.5913C-67.7764,463.4502,28.9805,325.5615,155.5405,243.21
		C237.1211,190.1211,337.8867,159.6733,432,159.6733c94.1084,0,194.876,30.4482,276.4668,83.5381
		c126.5557,82.3569,223.3096,220.2476,265.4521,378.3159c17.1055,64.1475,34.9619,165.0713,22.8877,281.583
		c-16.4043,158.3701-64.6533,307.835-135.8574,420.8623c-45.0781,71.54-99.25,129.7939-161.0107,173.1416
		C618.0459,1554.5811,527.8984,1583.7188,432,1583.7188z"/>
	<path fill="#F0047F" stroke="#000000" stroke-miterlimit="10" d="M432,1576.6318c-94.415,0-183.1904-28.7041-263.8604-85.3145
		c-60.9932-42.8027-114.5176-100.377-159.0864-171.1221C-61.583,1208.082-109.46,1059.6982-125.7578,902.3799
		c-11.9619-115.4419,5.7339-215.4595,22.6851-279.0352c41.6982-156.3979,137.3682-292.7866,262.4785-374.1948
		C239.8657,196.79,339.2227,166.7598,432,166.7598c92.7734,0,192.1318,30.0308,272.6016,82.3916
		C829.708,330.5649,925.374,466.9556,967.0713,623.353c16.9521,63.5723,34.6494,163.5859,22.6865,279.0269
		c-16.2949,157.3096-64.1699,305.6924-134.8047,417.8154c-44.5742,70.7412-98.0986,128.3135-159.0859,171.1182
		C615.1904,1547.9268,526.4131,1576.6318,432,1576.6318z"/>
	<path fill="#F0047F" stroke="#000000" stroke-miterlimit="10" d="M432,1569.5459c-92.9297,0-180.3354-28.2715-259.7896-84.0293
		c-60.2192-42.2598-113.0962-99.1533-157.1616-169.0986C-55.0181,1205.207-102.521,1057.9062-118.709,901.6494
		c-11.8506-114.3701,5.6855-213.4775,22.4834-276.479c41.2529-154.7266,135.8354-289.6157,259.4961-370.0806
		C242.6108,203.4585,340.5591,173.8467,432,173.8467c91.4365,0,189.3877,29.6123,268.7363,81.2446
		c123.6562,80.4697,218.2363,215.3613,259.4873,370.0869c16.7998,62.998,34.3379,162.1021,22.4854,276.4712
		c-16.1855,156.248-63.6855,303.5488-133.752,414.7686c-44.0703,69.9414-96.9473,126.833-157.1611,169.0957
		C612.335,1541.2734,524.9277,1569.5459,432,1569.5459z"/>
	<path fill="#F0047F" stroke="#000000" stroke-miterlimit="10" d="M432,1562.459c-91.4443,0-177.4805-27.8389-255.7188-82.7432
		c-59.4468-41.7178-111.6758-97.9307-155.2363-167.0752c-69.4976-110.3066-116.627-256.5254-132.7051-411.7217
		c-11.7397-113.2998,5.6377-211.4971,22.2822-273.9229c40.8071-153.0552,134.3027-286.4448,256.5137-365.9663
		C245.356,210.1274,341.8955,180.9331,432,180.9331c90.1016,0,186.6426,29.1948,264.8711,80.0981
		c122.207,79.5264,215.6992,212.918,256.5049,365.9727c16.6465,62.4233,34.0254,160.6177,22.2842,273.915
		c-16.0752,155.1865-63.2021,301.4053-132.6992,411.7217c-43.5664,69.1416-95.7949,125.3525-155.2363,167.0723
		C609.4805,1534.6191,523.4424,1562.459,432,1562.459z"/>
	<path fill="#F0047F" stroke="#000000" stroke-miterlimit="10" d="M432,1555.373c-89.959,0-174.6255-27.4062-251.6479-81.458
		c-58.6733-41.1748-110.2544-96.7061-153.311-165.0518c-68.9287-109.4033-115.6841-254.54-131.6523-408.6748
		c-11.6289-112.228,5.5894-209.5156,22.0811-271.3667c40.3613-151.3838,132.77-283.2739,253.5308-361.8525
		C248.1011,216.7959,343.2319,188.02,432,188.02c88.7646,0,183.8975,28.7764,261.0059,78.9507
		c120.7568,78.583,213.1621,210.4756,253.5225,361.8584c16.4932,61.8491,33.7139,159.1338,22.083,271.3594
		c-15.9658,154.125-62.7188,299.2617-131.6465,408.6748c-43.0615,68.3418-94.6436,123.8721-153.3115,165.0488
		C606.626,1527.9658,521.957,1555.373,432,1555.373z"/>
	<path fill="#F0047F" stroke="#000000" stroke-miterlimit="10" d="M432,1548.2861c-88.4731,0-171.7705-26.9736-247.5771-80.1719
		c-57.8994-40.6318-108.833-95.4824-151.3857-163.0283c-68.3599-108.5-114.7412-252.5547-130.5996-405.6279
		c-11.5176-111.1562,5.541-207.5337,21.8794-268.8105c39.916-149.7124,131.2373-280.103,250.5488-357.7383
		c75.981-49.4448,169.7031-77.8027,257.1343-77.8027c87.4297,0,181.1533,28.3589,257.1406,77.8042
		c119.3086,77.6401,210.626,208.0327,250.54,357.7441c16.3398,61.2725,33.4014,157.6455,21.8818,268.8032
		c-15.8555,153.0635-62.2344,297.1182-130.5938,405.6279c-42.5576,67.542-93.4912,122.3916-151.3867,163.0254
		C603.7705,1521.3115,520.4717,1548.2861,432,1548.2861z"/>
	<path fill="#F0047F" stroke="#000000" stroke-miterlimit="10" d="M432,1541.2002c-86.9878,0-168.9155-26.542-243.5063-78.8867
		c-57.126-40.0889-107.4116-94.2588-149.4604-161.0049c-67.791-107.5967-113.7988-250.5693-129.5469-402.5811
		c-11.4062-110.0854,5.4927-205.5527,21.6782-266.2544c39.4702-148.0415,129.7046-276.9326,247.5659-353.6245
		C253.5918,230.1333,345.9053,202.1934,432,202.1934c86.0928,0,178.4082,27.9404,253.2754,76.6572
		C803.1338,355.5474,893.3652,484.4404,932.833,632.48c16.1875,60.6987,33.0889,156.1621,21.6807,266.2476
		c-15.7451,152.002-61.751,294.9746-129.541,402.5811c-42.0537,66.7422-92.3398,120.9111-149.4619,161.0029
		C600.915,1514.6582,518.9863,1541.2002,432,1541.2002z"/>
	<path fill="#F0047F" stroke="#000000" stroke-miterlimit="10" d="M432,1534.1133c-85.5024,0-166.0601-26.1084-239.4355-77.6006
		c-56.3521-39.5459-105.9902-93.0352-147.5352-158.9814c-67.2222-106.6934-112.856-248.585-128.4941-399.5342
		C-94.7603,788.9819-78.02,694.4253-61.9883,634.2988c39.0249-146.3701,128.1724-273.7617,244.584-349.5103
		C256.3369,236.8018,347.2412,209.2798,432,209.2798c84.7568,0,175.6631,27.5225,249.4102,75.5107
		c116.4082,75.7529,205.5527,203.146,244.5752,349.5151c16.0342,60.1226,32.7773,154.6758,21.4795,263.6914
		c-15.6357,150.9414-61.2676,292.832-128.4883,399.5342c-41.5498,65.9424-91.1885,119.4307-147.5371,158.9795
		C598.0605,1508.0039,517.502,1534.1133,432,1534.1133z"/>
	<path fill="#F0047F" stroke="#000000" stroke-miterlimit="10" d="M432,1527.0273c-84.0171,0-163.2051-25.6768-235.3647-76.3154
		c-55.5786-39.0029-104.5688-91.8105-145.6099-156.958c-66.6533-105.79-111.9131-246.5996-127.4414-396.4873
		c-11.1841-107.9429,5.3965-201.5898,21.2754-261.1421C-16.5615,491.4258,71.499,365.5337,186.4604,290.728
		C259.082,243.4702,348.5776,216.3662,432,216.3662c83.4199,0,172.918,27.1045,245.5449,74.3638
		c114.959,74.8101,203.0156,200.7036,241.5928,345.4009c15.8818,59.5483,32.4658,153.1914,21.2783,261.1357
		c-15.5264,149.8799-60.7832,290.6885-127.4355,396.4873c-41.0459,65.1426-90.0371,117.9502-145.6123,156.9561
		C595.2061,1501.3506,516.0166,1527.0273,432,1527.0273z"/>
	<path fill="#F0047F" stroke="#000000" stroke-miterlimit="10" d="M432,1519.9404c-82.5312,0-160.3496-25.2432-231.2939-75.0293
		c-54.8037-38.459-103.1465-90.5859-143.6846-154.9346C-9.063,1185.0889-53.9487,1045.3623-69.3672,896.5361
		C-80.4404,789.665-64.019,696.9277-48.2935,637.9502C-10.1597,494.9229,76.8135,370.5303,190.3257,296.668
		c71.501-46.5288,159.5884-73.2148,241.6743-73.2148c82.085,0,170.1729,26.6865,241.6797,73.2168
		C787.1895,370.5366,874.1592,494.9312,912.29,637.9565c15.7285,58.9736,32.1533,151.707,21.0771,258.5796
		c-15.416,148.8184-60.2998,288.5449-126.3828,393.4404c-40.541,64.3418-88.8838,116.4688-143.6875,154.9326
		C592.3496,1494.6973,514.5303,1519.9404,432,1519.9404z"/>
	<path fill="#F0047F" stroke="#000000" stroke-miterlimit="10" d="M432,1512.8545c-81.0459,0-157.4946-24.8115-227.2231-73.7441
		c-54.0303-37.916-101.7251-89.3623-141.7598-152.9111C-2.498,1182.2148-47.0098,1043.5703-62.3184,895.8066
		c-10.9624-105.8003,5.2998-197.6274,20.8726-256.0308c37.688-141.3564,123.5742-264.2495,235.6362-337.1685
		C264.5718,256.8076,351.2505,230.5396,432,230.5396c80.748,0,167.4287,26.2686,237.8145,72.0698
		c112.0596,72.9233,197.9434,195.8184,235.6289,337.1729c15.5752,58.3994,31.8398,150.2231,20.875,256.0234
		c-15.3066,147.7568-59.8164,286.4014-125.3301,390.3936c-40.0371,63.542-87.7324,114.9883-141.7627,152.9102
		C589.4951,1488.043,513.0449,1512.8545,432,1512.8545z"/>
	<path fill="#F0047F" stroke="#000000" stroke-miterlimit="10" d="M432,1505.7676c-79.5596,0-154.6392-24.3779-223.1523-72.458
		c-53.2568-37.373-100.3042-88.1396-139.8345-150.8877C4.0669,1179.3408-40.0708,1041.7793-55.2695,895.0762
		c-10.8511-104.7275,5.2515-195.6455,20.6709-253.4746C2.644,501.9165,87.4434,380.5229,198.0557,308.5474
		C267.3164,263.4766,352.5859,237.6265,432,237.6265c79.4121,0,164.6836,25.8506,233.9492,70.9229
		c110.6094,71.9795,195.4062,193.3745,232.6465,333.0586c15.4219,57.8252,31.5273,148.7397,20.6738,253.4673
		c-15.1963,146.6953-59.332,284.2578-124.2773,387.3467c-39.5332,62.7432-86.582,113.5088-139.8379,150.8867
		C586.6387,1481.3896,511.5586,1505.7676,432,1505.7676z"/>
	<path fill="#F0047F" stroke="#000000" stroke-miterlimit="10" d="M432,1498.6816c-78.0742,0-151.7842-23.9463-219.0815-71.1729
		c-52.4834-36.8301-98.8828-86.915-137.9092-148.8643c-64.3774-102.1777-108.1411-238.6582-123.23-384.2988
		c-10.7397-103.6558,5.2036-193.6641,20.4697-250.9185C9.0459,505.4136,92.7583,385.5195,201.9204,314.4873
		C270.0615,270.145,353.9224,244.7129,432,244.7129c78.0762,0,161.9385,25.4326,230.084,69.7759
		c109.1602,71.0361,192.8701,190.9321,229.665,328.9448c15.2686,57.251,31.2148,147.2554,20.4717,250.9111
		c-15.0859,145.6338-58.8486,282.1143-123.2246,384.2998c-39.0293,61.9434-85.4297,112.0283-137.9131,148.8643
		C583.7832,1474.7354,510.0732,1498.6816,432,1498.6816z"/>
	<path fill="#F0047F" stroke="#000000" stroke-miterlimit="10" d="M432,1491.5947c-76.5884,0-148.9282-23.5127-215.0107-69.8867
		c-51.709-36.2871-97.4609-85.6914-135.9839-146.8408c-63.8091-101.2754-107.1987-236.6738-122.1772-381.252
		c-10.6289-102.5845,5.1553-191.6826,20.2681-248.3623C15.4478,508.9102,98.0728,390.5161,205.7856,320.4272
		C272.8062,276.814,355.2583,251.7998,432,251.7998c76.7393,0,159.1934,25.0142,226.2188,68.6289
		c107.71,70.0923,190.333,188.4888,226.6826,324.8306c15.1152,56.6758,30.9023,145.7705,20.2705,248.355
		C890.1953,1038.1875,846.8066,1173.5859,783,1274.8672c-38.5264,61.1455-84.2793,110.5488-135.9883,146.8408
		C580.9277,1468.082,508.5869,1491.5947,432,1491.5947z"/>
	<path fill="#F0047F" stroke="#000000" stroke-miterlimit="10" d="M432,1484.5088c-75.1025,0-146.0732-23.0811-210.9399-68.6016
		c-50.9355-35.7441-96.0396-84.4678-134.0591-144.8174c-63.2397-100.373-106.2559-234.6885-121.124-378.2051
		c-10.5176-101.5127,5.1069-189.7012,20.0664-245.8062c35.9062-134.6714,117.4443-251.5659,223.707-320.7114
		C275.5508,283.4824,356.5942,258.8867,432,258.8867c75.4033,0,156.4482,24.5957,222.3535,67.4814
		c106.2607,69.1494,187.7959,186.0464,223.7012,320.7168c14.9619,56.1016,30.5889,144.2861,20.0684,245.7988
		c-14.8662,143.5117-57.8809,277.8281-121.1191,378.2061c-38.0225,60.3457-83.127,109.0693-134.0625,144.8174
		C578.0723,1461.4277,507.1016,1484.5088,432,1484.5088z"/>
	<path fill="#F0047F" stroke="#000000" stroke-miterlimit="10" d="M432,1477.4219c-73.6162,0-143.2173-22.6475-206.8691-67.3154
		c-50.1621-35.2012-94.6182-83.2441-132.1338-142.7939c-62.6709-99.4697-105.313-232.7031-120.0713-375.1582
		c-10.4067-100.4429,5.0591-187.7202,19.8652-243.25c35.4604-133,115.9116-248.3955,220.7246-316.5972
		c64.7808-42.1562,144.4155-66.334,218.4844-66.334c74.0674,0,153.7031,24.1782,218.4883,66.335
		c104.8105,68.2056,185.2598,183.603,220.7188,316.6025c14.8086,55.5269,30.2764,142.8018,19.8672,243.2427
		c-14.7568,142.4512-57.3975,275.6846-120.0664,375.1592c-37.5195,59.5479-81.9775,107.5898-132.1377,142.7939
		C575.2168,1454.7744,505.6162,1477.4219,432,1477.4219z"/>
	<path fill="#F0047F" stroke="#000000" stroke-miterlimit="10" d="M432,1470.3359c-72.1313,0-140.3623-22.2158-202.7988-66.0303
		c-49.3877-34.6582-93.1963-82.0195-130.2085-140.7705C36.8911,1164.9688-5.377,1032.8164-20.0254,891.4238
		c-10.2954-99.3716,5.0107-185.7388,19.6636-240.6934c35.0151-131.3296,114.3794-245.2251,217.7422-312.4834
		c63.6611-41.4272,141.8872-65.187,214.6196-65.187c72.7314,0,150.959,23.7598,214.623,65.188
		c103.3613,67.2622,182.7236,181.1597,217.7363,312.4883c14.6553,54.9526,29.9639,141.3174,19.666,240.6865
		c-14.6475,141.3896-56.9141,273.541-119.0137,372.1123c-37.0156,58.748-80.8252,106.1094-130.2119,140.7705
		C572.3623,1448.1201,504.1309,1470.3359,432,1470.3359z"/>
	<path fill="#F0047F" stroke="#000000" stroke-miterlimit="10" d="M432,1463.249c-70.646,0-137.5078-21.7832-198.728-64.7441
		c-48.6147-34.1152-91.7754-80.7969-128.2832-138.7471C43.4565,1162.0947,1.562,1031.0254-12.9766,890.6934
		C-23.1611,792.3936-8.0142,706.936,6.4858,652.5562C41.0552,522.8984,119.332,410.502,221.2456,344.187
		C283.7861,303.4888,360.6035,280.1465,432,280.1465c71.3955,0,148.2139,23.3423,210.7578,64.041
		c101.9121,66.3193,180.1865,178.7173,214.7539,308.3745c14.502,54.3755,29.6523,139.8291,19.4648,238.1304
		c-14.5371,140.3271-56.4297,271.3975-117.9609,369.0654c-36.5127,57.9492-79.6748,104.6299-128.2871,138.7471
		C569.5078,1441.4658,502.6455,1463.249,432,1463.249z"/>
	<path fill="#F0047F" stroke="#000000" stroke-miterlimit="10" d="M432,1456.1631c-69.1606,0-134.6528-21.3506-194.6572-63.459
		c-47.8413-33.5723-90.3545-79.5723-126.3584-136.7236C50.0215,1159.2207,8.501,1029.2334-5.9277,889.9629
		c-10.0737-97.228,4.9141-181.7754,19.2612-235.5806C47.457,526.3955,124.647,415.4985,225.1104,350.127
		C286.5312,310.1572,361.9399,287.2334,432,287.2334c70.0596,0,145.4688,22.9238,206.8926,62.8936
		c100.4619,65.376,177.6504,176.2749,211.7715,304.2603c14.3496,53.8018,29.3398,138.3452,19.2637,235.5747
		c-14.4268,139.2656-55.9463,269.2539-116.9082,366.0186c-36.0088,57.1494-78.5234,103.1494-126.3613,136.7236
		C566.6523,1434.8125,501.1602,1456.1631,432,1456.1631z"/>
	<path fill="#F0047F" stroke="#000000" stroke-miterlimit="10" d="M432,1449.0762c-67.6753,0-131.7979-20.918-190.5864-62.1729
		c-47.0674-33.0293-88.9326-78.3486-124.4331-134.7002c-60.394-95.8564-101.5405-224.7617-115.8594-362.9707
		C-8.8413,793.0771,5.9868,709.439,20.1807,656.208c33.6782-126.3154,109.7808-235.7129,208.7949-300.1411
		C289.2759,316.8262,363.2754,294.3198,432,294.3198c68.7227,0,142.7236,22.5059,203.0273,61.7471
		c99.0127,64.4326,175.1133,173.8315,208.7891,300.146c14.1963,53.2271,29.0273,136.8618,19.0625,233.0186
		c-14.3174,138.2051-55.4629,267.1113-115.8555,362.9717c-35.5049,56.3496-77.3711,101.6689-124.4365,134.7002
		C563.7979,1428.1582,499.6748,1449.0762,432,1449.0762z"/>
	<path fill="#F0047F" stroke="#000000" stroke-miterlimit="10" d="M432,1441.9902c-66.1899,0-128.9429-20.4854-186.5156-60.8877
		c-46.2935-32.4854-87.5112-77.125-122.5083-132.6768C63.1509,1153.4727,22.3789,1025.6484,8.1699,888.502
		c-9.8511-95.084,4.8179-177.812,18.8584-230.4683c33.2319-124.644,108.2476-232.542,205.812-296.0273
		C292.021,323.4946,364.6123,301.4067,432,301.4067c67.3867,0,139.9785,22.0879,199.1621,60.5996
		c97.5625,63.4897,172.5771,171.3892,205.8076,296.0317c14.042,52.6538,28.7139,135.3784,18.8604,230.4629
		c-14.208,137.1436-54.9785,264.9678-114.8027,359.9248c-35.001,55.5498-76.2188,100.1885-122.5107,132.6768
		C560.9424,1421.5049,498.1895,1441.9902,432,1441.9902z"/>
	<path fill="#F0047F" stroke="#000000" stroke-miterlimit="10" d="M432,1434.9033c-64.7046,0-126.0879-20.0527-182.4448-59.6016
		c-45.519-31.9424-86.0894-75.9004-120.583-130.6533c-59.2563-94.0508-99.6548-220.793-113.7534-356.877
		c-9.7402-94.0122,4.7695-175.8301,18.6567-227.9121c32.7866-122.9722,106.7148-229.3706,202.8301-291.9131
		C294.7661,330.1631,365.9482,308.4932,432,308.4932c66.0508,0,137.2334,21.6699,195.2969,59.4531
		c96.1123,62.5454,170.04,168.9458,202.8252,291.9175c13.8896,52.0796,28.4014,133.895,18.6592,227.9067
		c-14.0977,136.082-54.4951,262.8242-113.75,356.8779c-34.4961,54.749-75.0664,98.707-120.5859,130.6533
		C558.0879,1414.8506,496.7051,1434.9033,432,1434.9033z"/>
	<path fill="#F0047F" stroke="#000000" stroke-miterlimit="10" d="M432,1427.8174c-63.2192,0-123.2324-19.6201-178.374-58.3164
		c-44.7456-31.3994-84.668-74.6768-118.6582-128.6299c-58.687-93.1484-98.7114-218.8076-112.7002-353.8301
		c-9.6294-92.9404,4.7212-173.8481,18.4551-225.356C73.064,540.3838,145.9058,435.4849,240.5703,373.8857
		C297.5112,336.8315,367.2847,315.5801,432,315.5801c64.7148,0,134.4883,21.2515,191.4316,58.3057
		c94.6631,61.6025,167.5029,166.5029,199.8438,287.8037c13.7354,51.5049,28.0879,132.4102,18.457,225.3506
		c-13.9883,135.0205-54.0117,260.6797-112.6973,353.8311c-33.9912,53.9492-73.9141,97.2266-118.6602,128.6299
		C555.2334,1408.1973,495.2197,1427.8174,432,1427.8174z"/>
	<path fill="#F0047F" stroke="#000000" stroke-miterlimit="10" d="M432,1420.7305c-61.7334,0-120.3774-19.1875-174.3032-57.0303
		c-43.9717-30.8564-83.2466-73.4531-116.7329-126.6064c-58.1182-92.2451-97.7686-216.8223-111.6475-350.7832
		c-9.5181-91.8677,4.6729-171.8662,18.2539-222.7998c31.8955-119.6304,103.6504-223.0293,196.8652-283.6851
		C300.2568,343.5,368.6216,322.6665,432,322.6665c63.3779,0,131.7432,20.8335,187.5664,57.1592
		c93.2139,60.6592,164.9668,164.0601,196.8613,283.6895c13.582,50.9277,27.7764,130.9219,18.2559,222.7944
		c-13.8779,133.958-53.5273,258.5361-111.6445,350.7842c-33.4863,53.1475-72.7607,95.7441-116.7354,126.6064
		C552.3779,1401.543,493.7344,1420.7305,432,1420.7305z"/>
	<path fill="#F0047F" stroke="#000000" stroke-miterlimit="10" d="M432,1413.6445c-60.248,0-117.5225-18.7559-170.2324-55.7451
		c-43.1982-30.3135-81.8252-72.2295-114.8081-124.583c-57.5488-91.3418-96.8257-214.8369-110.5942-347.7363
		c-9.4072-90.7959,4.6245-169.8848,18.0522-220.2437c31.4502-117.959,102.1177-219.8589,193.8828-279.5713
		C303.002,350.1689,369.958,329.7534,432,329.7534s128.998,20.4155,183.7012,56.0117
		c91.7646,59.7163,162.4307,161.6172,193.8789,279.5752c13.4297,50.354,27.4639,129.438,18.0547,220.2388
		c-13.7686,132.8965-53.0439,256.3916-110.5918,347.7373c-32.9824,52.3477-71.6094,94.2637-114.8096,124.583
		C549.5234,1394.8887,492.249,1413.6445,432,1413.6445z"/>
	<path fill="#F0047F" stroke="#000000" stroke-miterlimit="10" d="M432,1406.5576c-58.7627,0-114.667-18.3223-166.1616-54.459
		c-42.4248-29.7705-80.4043-71.0059-112.8828-122.5596c-56.9805-90.4395-95.8828-212.8535-109.5415-344.6895
		c-9.2964-89.7256,4.5767-167.9038,17.8511-217.6875c31.0044-116.2876,100.585-216.688,190.9004-275.457
		C305.7471,356.8374,371.2944,336.8398,432,336.8398c60.7051,0,126.2529,19.9976,179.8359,54.8652
		c90.3145,58.7725,159.8936,159.1738,190.8965,275.4609c13.2764,49.7788,27.1514,127.9536,17.8535,217.6826
		c-13.6582,131.835-52.5605,254.249-109.5391,344.6904c-32.4785,51.5488-70.458,92.7832-112.8848,122.5596
		C546.668,1388.2354,490.7627,1406.5576,432,1406.5576z"/>
	<path fill="#F0047F" stroke="#000000" stroke-miterlimit="10" d="M432,1399.4717c-57.2769,0-111.812-17.8906-162.0908-53.1738
		c-41.6514-29.2285-78.9829-69.7822-110.958-120.5361c-56.4111-89.5371-94.9399-210.8682-108.4883-341.6426
		c-9.1851-88.6533,4.5283-165.9219,17.6499-215.1309c30.5586-114.6167,99.0522-213.5176,187.9175-271.3438
		C308.4922,363.5063,372.6309,343.9268,432,343.9268s123.5078,19.5791,175.9707,53.7178
		c88.8652,57.8291,157.3564,156.7314,187.9141,271.3472c13.123,49.2046,26.8389,126.4692,17.6523,215.1265
		c-13.5488,130.7734-52.0762,252.1055-108.4863,341.6436c-31.9736,50.749-69.3057,91.3027-110.959,120.5361
		C543.8125,1381.5811,489.2773,1399.4717,432,1399.4717z"/>
	<path fill="#F0047F" stroke="#000000" stroke-miterlimit="10" d="M432,1392.3848c-55.791,0-108.9565-17.457-158.02-51.8877
		c-40.8784-28.6855-77.5625-68.5596-109.0327-118.5127c-55.8423-88.6338-93.9971-208.8828-107.4355-338.5957
		c-9.0742-87.582,4.48-163.9404,17.4482-212.5747c30.1133-112.9453,97.5195-210.3467,184.9355-267.2295
		C311.2373,370.1748,373.9673,351.0132,432,351.0132c58.0332,0,120.7627,19.1616,172.1055,52.5713
		c87.416,56.8862,154.8203,154.2891,184.9316,267.2329c12.9697,48.6274,26.5273,124.9814,17.4512,212.5703
		c-13.4385,129.7119-51.5928,249.9619-107.4336,338.5967c-31.4707,49.9502-68.1553,89.8232-109.0342,118.5127
		C540.957,1374.9277,487.791,1392.3848,432,1392.3848z"/>
	<path fill="#F0047F" stroke="#000000" stroke-miterlimit="10" d="M432,1385.2988c-54.3062,0-106.1021-17.0254-153.9492-50.6025
		c-40.105-28.1426-76.1411-67.335-107.1079-116.4893c-55.2729-87.7305-93.0537-206.8975-106.3823-335.5488
		c-8.9634-86.5103,4.4316-161.9585,17.2471-210.0181c29.6675-111.2744,95.9868-207.1768,181.9526-263.1162
		C313.9829,376.8433,375.3037,358.1001,432,358.1001c56.6973,0,118.0186,18.7432,168.2402,51.4238
		c85.9658,55.9434,152.2842,151.8462,181.9492,263.1187c12.8174,48.0537,26.2148,123.4976,17.25,210.0146
		c-13.3281,128.6504-51.1084,247.8174-106.3809,335.5498c-30.9668,49.1504-67.0039,88.3428-107.1084,116.4893
		C538.1016,1368.2734,486.3057,1385.2988,432,1385.2988z"/>
	<path fill="#F0047F" stroke="#000000" stroke-miterlimit="10" d="M432,1378.2119c-52.8198,0-103.2461-16.5918-149.8784-49.3164
		c-39.3311-27.5996-74.7197-66.1113-105.1826-114.4658c-54.7036-86.8271-92.1108-204.9121-105.3296-332.502
		c-8.8521-85.4375,4.3833-159.9766,17.0454-207.4619c29.2222-109.603,94.4546-204.0059,178.9707-259.002
		C316.728,383.5117,376.6401,365.1865,432,365.1865c55.3613,0,115.2734,18.3257,164.375,50.2773
		c84.5156,54.999,149.7471,149.4023,178.9668,259.0044c12.6641,47.479,25.9023,122.0132,17.0488,207.4585
		c-13.2188,127.5908-50.626,245.6758-105.3281,332.5029c-30.4629,48.3506-65.8516,86.8623-105.1836,114.4658
		C535.2461,1361.6201,484.8193,1378.2119,432,1378.2119z"/>
	<path fill="#F0047F" stroke="#000000" stroke-miterlimit="10" d="M432,1371.126c-51.3345,0-100.3911-16.1602-145.8081-48.0312
		c-38.5571-27.0566-73.2979-64.8877-103.2573-112.4424c-54.1348-85.9238-91.1675-202.9268-104.2764-329.4551
		c-8.7407-84.3657,4.3354-157.9946,16.8442-204.9058c28.7764-107.9321,92.9219-200.835,175.9883-254.8882
		C319.4731,390.1807,377.9766,372.2734,432,372.2734c54.0244,0,112.5283,17.9072,160.5098,49.1299
		c83.0664,54.0557,147.21,146.9595,175.9854,254.8901c12.5107,46.9053,25.5889,120.5298,16.8467,204.9028
		c-13.1094,126.5293-50.1416,243.5322-104.2754,329.4561c-29.959,47.5508-64.6992,85.3818-103.2578,112.4424
		C532.3916,1354.9658,483.334,1371.126,432,1371.126z"/>
	<path fill="#F0047F" stroke="#000000" stroke-miterlimit="10" d="M432,1364.0391c-49.8481,0-97.5352-15.7266-141.7373-46.7451
		c-37.7842-26.5146-71.877-63.665-101.332-110.4189c-53.5654-85.0205-90.2246-200.9414-103.2236-326.4082
		c-8.6299-83.2944,4.2871-156.0132,16.6426-202.3496c28.3311-106.2607,91.3896-197.6646,173.0063-250.7739
		c46.8623-30.4941,103.9565-47.9834,156.644-47.9834c52.6885,0,109.7832,17.4893,156.6445,47.9834
		c81.6172,53.1123,144.6738,144.5166,173.0029,250.7759c12.3574,46.3311,25.2764,119.0464,16.6455,202.3467
		c-12.999,125.4658-49.6572,241.3877-103.2227,326.4092c-29.4541,46.75-63.5469,83.9004-101.333,110.4189
		C529.5352,1348.3125,481.8477,1364.0391,432,1364.0391z"/>
	<path fill="#F0047F" stroke="#000000" stroke-miterlimit="10" d="M432,1356.9531c-48.3628,0-94.6807-15.2949-137.6665-45.46
		c-37.0103-25.9717-70.4556-62.4414-99.4072-108.3955c-52.9961-84.1172-89.2812-198.9561-102.1704-323.3613
		c-8.519-82.2222,4.2388-154.0312,16.4409-199.793c27.8857-104.5898,89.8574-194.4941,170.0244-246.6602
		C324.9629,403.5181,380.6489,386.4468,432,386.4468c51.3525,0,107.0381,17.0713,152.7793,46.8364
		c80.167,52.1685,142.1377,142.0732,170.0215,246.6611c12.2031,45.7573,24.9629,117.563,16.4434,199.791
		c-12.8896,124.4043-49.1738,239.2432-102.1689,323.3623c-28.9512,45.9502-62.3965,82.4199-99.4082,108.3955
		C526.6797,1341.6582,480.3623,1356.9531,432,1356.9531z"/>
	<path fill="#F0047F" stroke="#000000" stroke-miterlimit="10" d="M432,1349.8662c-46.8774,0-91.8257-14.8623-133.5957-44.1738
		c-36.2368-25.4287-69.0347-61.2178-97.4819-106.3721c-52.4272-83.2139-88.3384-196.9707-101.1177-320.3145
		c-8.4077-81.1494,4.1904-152.0493,16.2397-197.2368c27.4399-102.9189,88.3247-191.3237,167.042-242.5464
		C327.708,410.1865,381.9849,393.5332,432,393.5332c50.0156,0,104.293,16.6533,148.9141,45.6895
		c78.7168,51.2251,139.6006,139.6299,167.0391,242.5474c12.0508,45.1836,24.6504,116.0801,16.2422,197.2349
		c-12.7793,123.3428-48.6904,237.1006-101.1162,320.3154c-28.4473,45.1514-61.2451,80.9395-97.4834,106.3721
		C523.8252,1335.0039,478.877,1349.8662,432,1349.8662z"/>
	<path fill="#F0047F" stroke="#000000" stroke-miterlimit="10" d="M432,1342.7803c-45.3926,0-88.9707-14.4297-129.5249-42.8887
		c-35.4634-24.8857-67.6133-59.9941-95.5566-104.3486c-51.8584-82.3105-87.3955-194.9844-100.0649-317.2676
		c-8.2964-80.0771,4.1426-150.0674,16.0386-194.6807c26.9941-101.2476,86.792-188.1528,164.0596-238.4326
		c43.5015-28.3071,96.3696-44.542,145.0483-44.542s101.5479,16.2349,145.0488,44.542
		c77.2676,50.2817,137.0645,137.1875,164.0576,238.4336c11.8965,44.6094,24.3369,114.5962,16.04,194.6787
		c-12.6689,122.2812-48.2061,234.9561-100.0635,317.2686c-27.9434,44.3516-60.0938,79.46-95.5576,104.3486
		C520.9707,1328.3506,477.3916,1342.7803,432,1342.7803z"/>
	<path fill="#F0047F" stroke="#000000" stroke-miterlimit="10" d="M432,1335.6934c-43.9072,0-86.1157-13.9971-125.4541-41.6025
		c-34.689-24.3428-66.1914-58.7695-93.6318-102.3252c-51.2891-81.4072-86.4521-193-99.0117-314.2207
		c-8.1855-79.0063,4.0942-148.0859,15.8369-192.1245c26.5488-99.5762,85.2593-184.9819,161.0776-234.3184
		c42.3809-27.5781,93.8398-43.3955,141.1831-43.3955c47.3438,0,98.8027,15.8174,141.1836,43.3955
		c75.8174,49.3379,134.5273,134.7441,161.0752,234.3193c11.7441,44.0361,24.0244,113.1147,15.8389,192.1226
		c-12.5596,121.2207-47.7227,232.8135-99.0107,314.2217c-27.4395,43.5518-58.9414,77.9785-93.6328,102.3252
		C518.1152,1321.6963,475.9062,1335.6934,432,1335.6934z"/>
	<path fill="#F0047F" stroke="#000000" stroke-miterlimit="10" d="M432,1328.6074c-42.4219,0-83.2607-13.5645-121.3833-40.3174
		c-33.9155-23.7998-64.77-57.5459-91.707-100.3018c-50.7197-80.5039-85.5093-191.0146-97.9585-311.1738
		c-8.0747-77.9346,4.0459-146.104,15.6357-189.5679c26.103-97.9053,83.7266-181.812,158.0952-230.2051
		c41.2607-26.8491,91.311-42.248,137.3179-42.248s96.0576,15.3989,137.3184,42.248
		c74.3682,48.395,131.9902,132.3018,158.0938,230.2056c11.5898,43.4619,23.7109,111.6304,15.6367,189.5664
		c-12.4502,120.1592-47.2393,230.6699-97.958,311.1748c-26.9355,42.752-57.79,76.498-91.707,100.3018
		C515.2607,1315.043,474.4209,1328.6074,432,1328.6074z"/>
	<path fill="#F0047F" stroke="#000000" stroke-miterlimit="10" d="M432,1321.5205c-40.9365,0-80.4058-13.1318-117.3125-39.0312
		c-33.1416-23.2568-63.3486-56.3223-89.7817-98.2783C174.7544,1104.6094,140.3394,995.1807,128,876.084
		c-7.9634-76.8613,3.9976-144.1221,15.4341-187.0117c25.6577-96.2339,82.1943-178.6411,155.1133-226.0908
		C338.688,436.8608,387.3296,421.8799,432,421.8799c44.6709,0,93.3125,14.981,133.4531,41.1016
		c72.918,47.4512,129.4541,129.8584,155.1113,226.0913C732.002,731.9624,743.9629,799.2227,736,876.083
		c-12.3398,119.0977-46.7549,228.5264-96.9053,308.1279c-26.4316,41.9521-56.6387,75.0176-89.7822,98.2783
		C512.4053,1308.3887,472.9355,1321.5205,432,1321.5205z"/>
	<path fill="#F0047F" stroke="#000000" stroke-miterlimit="10" d="M432,1314.4346c-39.4512,0-77.5513-12.7002-113.2417-37.7461
		c-32.3682-22.7139-61.9277-55.0986-87.8569-96.2549c-49.582-78.6982-83.623-187.0449-95.8525-305.0801
		c-7.8521-75.7896,3.9497-142.1401,15.2329-184.4556c25.2119-94.563,80.6616-175.4702,152.1304-221.9771
		c39.021-25.3916,86.2539-39.9541,129.5879-39.9541s90.5674,14.5625,129.5879,39.9541
		c71.4688,46.5083,126.918,127.4155,152.1299,221.9775c11.2832,42.3149,23.085,108.6655,15.2334,184.4541
		c-12.2305,118.0352-46.2715,226.3818-95.8525,305.0811c-25.9277,41.1533-55.4863,73.5381-87.8564,96.2549
		C509.5508,1301.7344,471.4502,1314.4346,432,1314.4346z"/>
	<path fill="#F0047F" stroke="#000000" stroke-miterlimit="10" d="M432,1307.3477c-37.9653,0-74.6958-12.2666-109.1709-36.46
		c-31.5947-22.1709-60.5063-53.875-85.9316-94.2314c-49.0127-77.7949-82.6802-185.0586-94.7998-302.0332
		c-7.7412-74.7178,3.9014-140.1587,15.0312-181.8994c24.7666-92.8916,79.1294-172.2998,149.1484-217.8628
		C344.1777,450.1982,390.002,436.0532,432,436.0532s87.8223,14.145,125.7227,38.8076
		c70.0186,45.5645,124.3809,124.9727,149.1475,217.8633C718,734.4634,729.6436,799.9033,721.9023,874.6221
		c-12.1201,116.9746-45.7871,224.2383-94.7998,302.0342c-25.4248,40.3555-54.3369,72.0586-85.9316,94.2314
		C506.6953,1295.0811,469.9658,1307.3477,432,1307.3477z"/>
	<path fill="#F0047F" stroke="#000000" stroke-miterlimit="10" d="M432,1300.2617c-36.48,0-71.8408-11.835-105.1001-35.1748
		c-30.8213-21.6289-59.0854-52.6523-84.0068-92.208c-48.4434-76.8916-81.7368-183.0742-93.7466-298.9863
		c-7.6304-73.646,3.853-138.1772,14.8301-179.3433c24.3208-91.2207,77.5967-169.1289,146.166-213.749
		c36.7803-23.9336,81.1953-37.6602,121.8574-37.6602s85.0771,13.7266,121.8574,37.6602
		c68.5693,44.6211,121.8447,122.5298,146.165,213.7495c10.9766,41.165,22.4609,105.6948,14.8311,179.3418
		c-12.0098,115.9121-45.3037,222.0947-93.7471,298.9873c-24.9209,39.5557-53.1846,70.5781-84.0059,92.208
		C503.8408,1288.4268,468.4805,1300.2617,432,1300.2617z"/>
	<path fill="#F0047F" stroke="#000000" stroke-miterlimit="10" d="M432,1293.1748c-34.9941,0-68.9854-11.4014-101.0293-33.8887
		c-30.0479-21.0859-57.6636-51.4277-82.0815-90.1846c-47.8745-75.9883-80.7939-181.0879-92.6938-295.9395
		c-7.519-72.5742,3.8047-136.1948,14.6284-176.7871c23.8755-89.5488,76.064-165.958,143.1841-209.6348
		c35.6602-23.2051,78.667-36.5137,117.9922-36.5137s82.332,13.3086,117.9922,36.5137
		c67.1191,43.6772,119.3076,120.0864,143.1826,209.6353c10.8242,40.5913,22.1484,104.2119,14.6299,176.7856
		c-11.9004,114.8525-44.8203,219.9521-92.6943,295.9404c-24.418,38.7568-52.0342,69.0986-82.0811,90.1846
		C500.9854,1281.7734,466.9941,1293.1748,432,1293.1748z"/>
</g>
</svg>
