<?xml version="1.0" encoding="utf-8"?>
<!-- Generator: Adobe Illustrator 16.0.0, SVG Export Plug-In . SVG Version: 6.00 Build 0)  -->
<!DOCTYPE svg PUBLIC "-//W3C//DTD SVG 1.1//EN" "http://www.w3.org/Graphics/SVG/1.1/DTD/svg11.dtd">
<svg version="1.1" xmlns="http://www.w3.org/2000/svg" xmlns:xlink="http://www.w3.org/1999/xlink" x="0px" y="0px" width="864px"
	 height="1728px" viewBox="0 0 864 1728" enable-background="new 0 0 864 1728" xml:space="preserve">
<g id="Layer_1">
	<rect x="417.0913" y="1155.0762" fill="none" stroke="#000000" stroke-miterlimit="10" width="29.9985" height="149.9922"/>
	
		<rect x="171.5694" y="1040.8516" transform="matrix(0.7926 0.6097 -0.6097 0.7926 718.9926 117.6251)" fill="none" stroke="#000000" stroke-miterlimit="10" width="29.9979" height="149.9922"/>
	
		<rect x="666.304" y="1032.9094" transform="matrix(0.7895 -0.6137 0.6137 0.7895 -539.6073 652.324)" fill="none" stroke="#000000" stroke-miterlimit="10" width="29.9976" height="160.0298"/>
</g>
<g id="Layer_4">
	<path fill="#008837" stroke="#000000" stroke-miterlimit="10" d="M799.1338,777.2695
		C783.04,577.9014,633.5303,417.3013,432.4971,417.3013c-201.0376,0-350.5454,160.6001-366.6421,359.9678
		c-3.1221,38.6636,0.1484,78.645,0.8701,117.2808c1.96,105.0654-1.293,244.8496,77.9668,325.874
		c70.2061,71.7676,182.8145,107.0059,287.8052,105.6377c104.9883,1.3682,217.5957-33.8701,287.8008-105.6377
		c79.2617-81.0244,76.0078-220.8086,77.9707-325.874C798.9873,855.9141,802.2588,815.9326,799.1338,777.2695z"/>
	<path fill="none" stroke="#000000" stroke-miterlimit="10" d="M963.9912,1440.8125c0,15.5391-12.6895,28.1367-28.3457,28.1367
		H-70.6533c-15.6562,0-28.3477-12.5977-28.3477-28.1367V287.1875c0-15.5396,12.6914-28.1367,28.3477-28.1367H935.6455
		c15.6562,0,28.3457,12.5972,28.3457,28.1367V1440.8125z"/>
	<path fill="#00A0C6" stroke="#000000" stroke-miterlimit="10" d="M772.9736,778.4033
		c-25.0996-172.4058-151.9668-336.918-340.4785-336.8208c-188.5103-0.0972-315.3765,164.415-340.4771,336.8208
		c-4.2109,28.9209-4.5449,104.4531-4.3389,113.4531c2.166,94.0537,6.6152,243.2773,80.9131,303.6357
		c64.7217,52.5791,140.1152,106.4189,263.9028,106.3262c127.4551,0.0967,211.1445-63.4502,267.9141-110.415
		c73.6445-60.9248,74.7383-205.4932,76.9023-299.5469C777.5186,882.8564,777.1826,807.3242,772.9736,778.4033z"/>
</g>
<g id="Layer_3">
	<path fill="#F0047F" stroke="#000000" stroke-miterlimit="10" d="M430.7378,455.0986c-39.4126,0-84.2114,9.625-123.792,29.0117
		c-69.0059,33.8008-127.7339,95.0527-154.5483,170.7549c-15.4751,43.6816-22.9941,94.8921-16.022,145.5469
		c26.8247,194.8721,146.6011,345.3135,294.3623,345.3135S688.252,999.7842,724.3643,800.4121
		c8.4883-46.856,4.2979-95.6963-9.2402-137.0088c-23.5479-71.8711-78.9365-134.5918-142.2705-171.1138
		C526.9717,465.8311,477.2949,455.0986,430.7378,455.0986z"/>
</g>
<g id="Layer_2" display="none">
</g>
</svg>
