<?xml version="1.0" encoding="utf-8"?>
<!-- Generator: Adobe Illustrator 16.0.0, SVG Export Plug-In . SVG Version: 6.00 Build 0)  -->
<!DOCTYPE svg PUBLIC "-//W3C//DTD SVG 1.1//EN" "http://www.w3.org/Graphics/SVG/1.1/DTD/svg11.dtd">
<svg version="1.1" id="Layer_1" xmlns="http://www.w3.org/2000/svg" xmlns:xlink="http://www.w3.org/1999/xlink" x="0px" y="0px"
	 width="864px" height="1728px" viewBox="0 0 864 1728" enable-background="new 0 0 864 1728" xml:space="preserve">
<path fill="#FF8000" stroke="#000000" stroke-miterlimit="10" d="M964.8311,1440.8125c0,15.5391-12.6904,28.1367-28.3457,28.1367
	H-69.814c-15.6562,0-28.3477-12.5977-28.3477-28.1367V287.1875c0-15.5396,12.6914-28.1367,28.3477-28.1367H936.4854
	c15.6553,0,28.3457,12.5972,28.3457,28.1367V1440.8125z"/>
<path fill="#008837" stroke="#000000" stroke-miterlimit="10" d="M433.3477,1326.0615
	c104.9883,1.3682,217.584-33.8701,287.79-105.6377c79.2617-81.0244,76.0068-220.8086,77.9697-325.874
	c0.7188-38.6357,3.9902-78.6172,0.8662-117.2803c-16.0947-199.3682-165.5918-359.9683-366.626-359.9683h-0.0234
	c-201.0366,0-350.5327,160.6001-366.6299,359.9678c-3.1216,38.6636,0.1489,78.645,0.8701,117.2808
	c1.96,105.0654-1.293,244.8496,77.9673,325.874c70.2061,71.7676,182.8027,107.0059,287.7925,105.6377H433.3477z"/>
<path fill="#00A0C6" stroke="#000000" stroke-miterlimit="10" d="M433.3232,1302.1318
	c151.2988,0.1143,257.4814-89.5098,287.7842-134.4756c53.6611-79.625,54.8789-181.4326,57.0439-275.4863
	c0.207-9-0.1299-84.5322-4.3389-113.4531C748.7129,606.3076,621.8408,441.792,433.3232,441.896h0.0225
	C244.8281,441.792,117.958,606.3076,92.8564,778.7168c-4.2104,28.9209-4.5449,104.4531-4.3384,113.4531
	c2.1655,94.0537,3.3809,195.8613,57.043,275.4863c30.3032,44.9658,136.4868,134.5898,287.7856,134.4756H433.3232z"/>
<path fill="#F0047F" stroke="#000000" stroke-miterlimit="10" d="M432.8672,455.3984c-34.9878,0-74.7695,11.353-109.9102,34.2197
	c-61.2681,39.8691-113.4126,112.1162-137.2197,201.4067c-13.7383,51.5229-20.4155,111.9258-14.2256,171.6743
	C195.3276,1092.5537,301.6782,1270,432.8672,1270c131.1914,0,228.6377-172.1387,260.707-407.3008
	c7.5371-55.2676,3.8203-112.8745-8.2002-161.603c-20.9102-84.7729-70.082-158.7524-126.3174-201.8306
	C518.3203,468.0576,474.2031,455.3984,432.8672,455.3984z"/>
<polygon fill="none" stroke="#000000" stroke-miterlimit="10" points="139.521,1165.4473 129.5083,1141.8516 225.2637,1099.7109 
	235.2773,1123.3047 "/>
<polygon fill="none" stroke="#000000" stroke-miterlimit="10" points="729.4092,1165.4473 739.4199,1141.8516 643.665,1099.7109 
	633.6514,1123.3047 "/>
</svg>
