<?xml version="1.0" encoding="utf-8"?>
<!-- Generator: Adobe Illustrator 16.0.0, SVG Export Plug-In . SVG Version: 6.00 Build 0)  -->
<!DOCTYPE svg PUBLIC "-//W3C//DTD SVG 1.1//EN" "http://www.w3.org/Graphics/SVG/1.1/DTD/svg11.dtd">
<svg version="1.1" xmlns="http://www.w3.org/2000/svg" xmlns:xlink="http://www.w3.org/1999/xlink" x="0px" y="0px" width="864px"
	 height="1728px" viewBox="0 0 864 1728" enable-background="new 0 0 864 1728" xml:space="preserve">
<g id="Layer_1">
	<path fill="#FD1A16" stroke="#000000" stroke-miterlimit="10" d="M432.4956,420.9077
		c-203.8726,0-342.4736,159.3257-358.7974,357.1108c-3.1655,38.3564,0.1504,78.0205,0.8813,116.3496
		c1.9883,104.2324-1.3105,242.9072,79.0679,323.2881c69.8657,69.8672,174.3569,104.8008,278.8481,104.8008
		c104.4907,0,208.9819-34.9336,278.8481-104.8008c80.3789-80.3809,77.0801-219.0566,79.0674-323.2881
		c0.7305-38.3286,4.0469-77.9932,0.8809-116.3496C774.9688,580.2329,636.3682,420.9077,432.4956,420.9077z"/>
	<path fill="none" stroke="#000000" stroke-miterlimit="10" d="M963.9912,1440.8125c0,15.5391-12.6904,28.1367-28.3457,28.1367
		H-70.6533c-15.6562,0-28.3477-12.5977-28.3477-28.1367V287.1875c0-15.5396,12.6914-28.1367,28.3477-28.1367H935.6455
		c15.6553,0,28.3457,12.5972,28.3457,28.1367V1440.8125z"/>
	<path fill="none" stroke="#000000" stroke-miterlimit="10" d="M963.9912,1440.8125c0,15.5391-12.6895,28.1367-28.3457,28.1367
		H-70.6533c-15.6562,0-28.3477-12.5977-28.3477-28.1367V287.1875c0-15.5396,12.6914-28.1367,28.3477-28.1367H935.6455
		c15.6562,0,28.3457,12.5972,28.3457,28.1367V1440.8125z"/>
	<path fill="#F0047F" stroke="#000000" stroke-miterlimit="10" d="M679.9756,700.0269
		c-23.8066-89.291-75.9512-161.5381-137.2188-201.4072c-35.1406-22.8667-75.2734-34.2197-110.2612-34.2197
		c-34.9883,0-75.1211,11.353-110.2617,34.2197c-61.2686,39.8691-113.4131,112.1162-137.2197,201.4072
		c-13.7383,51.5225-20.416,111.9263-14.2256,171.6743c23.8154,229.8535,130.5171,407.3008,261.707,407.3008
		c131.189,0,237.8901-177.4473,261.7065-407.3008C700.3916,811.9531,693.7139,751.5493,679.9756,700.0269z"/>
	<polygon fill="none" stroke="#000000" stroke-miterlimit="10" points="136.0815,1144.1758 126.0508,1120.5879 211.3379,1082.9766 
		221.3696,1106.5625 	"/>
	<polygon fill="none" stroke="#000000" stroke-miterlimit="10" points="728.1279,1144.1758 738.1592,1120.5879 652.8721,1082.9766 
		642.8408,1106.5625 	"/>
	<path fill="none" stroke="#000000" stroke-miterlimit="10" d="M767.8359,895.6982"/>
	<path fill="#FD1A16" stroke="#000000" stroke-miterlimit="10" d="M761.4062,776.3921
		c-27.4395-170.457-134.8066-328.2207-328.6235-331.085c-189.374-0.1025-304.6006,161.2866-330.8164,331.2808
		c-4.5693,29.6323-5.0439,109.6436-4.8232,119.1104c2.7461,95.499,7.0347,220.5635,78.9233,295.6279
		C212.3672,1229.4297,306.5,1295.5,432.4956,1298.6777c112.853,2.8467,217.9907-67.1777,256.3989-107.2832
		c71.8887-75.0645,76.1953-200.1973,78.9414-295.6963C767.9629,891.3066,767.084,811.6646,761.4062,776.3921z"/>
</g>
<g id="Layer_2">
</g>
</svg>
