<?xml version="1.0" encoding="utf-8"?>
<!-- Generator: Adobe Illustrator 16.0.0, SVG Export Plug-In . SVG Version: 6.00 Build 0)  -->
<!DOCTYPE svg PUBLIC "-//W3C//DTD SVG 1.1//EN" "http://www.w3.org/Graphics/SVG/1.1/DTD/svg11.dtd">
<svg version="1.1" id="Layer_1" xmlns="http://www.w3.org/2000/svg" xmlns:xlink="http://www.w3.org/1999/xlink" x="0px" y="0px"
	 width="864px" height="1728px" viewBox="0 0 864 1728" enable-background="new 0 0 864 1728" xml:space="preserve">
<path fill="#FD1A16" stroke="#000000" stroke-miterlimit="10" d="M432,420.9077c-203.8726,0-342.4736,159.3257-358.7974,357.1108
	c-3.1655,38.3564,0.1504,78.0205,0.8813,116.3496c1.9883,104.2324-1.3105,242.9072,79.0679,323.2881
	c139.7314,139.7334,417.9653,139.7344,557.6968,0c80.3789-80.3809,77.0801-219.0566,79.0674-323.2881
	c0.7305-38.3286,4.0469-77.9932,0.8809-116.3496C774.4736,580.2329,635.873,420.9077,432,420.9077z"/>
<path fill="#FD1A16" stroke="#000000" stroke-miterlimit="10" d="M431.832,1299.2988c99.8896,0,209.9277-43.3877,271.3496-124.665
	c62.7158-82.9893,61.4326-193.0635,64.5615-292.0537c6.4697-204.7202-101.5234-433.8159-335.4473-437.2729
	C209.9116,445.187,89.7783,667.7651,95.9629,865.458c3.1387,100.3232-1.0708,213.2969,58.3252,299.8496
	c60.0303,87.4766,174.521,133.9912,278.1758,133.9912"/>
<path fill="#F0047F" stroke="#000000" stroke-miterlimit="10" d="M432.4639,570.7114c-132.3188,0-239.585,126.5498-239.585,282.6567
	c0,156.1084,107.2661,282.6572,239.585,282.6572c132.3184,0,239.584-126.5488,239.584-282.6572
	C672.0479,697.2612,564.7822,570.7114,432.4639,570.7114z"/>
<path fill="none" stroke="#000000" stroke-miterlimit="10" d="M963.4961,1440.8125c0,15.5391-12.6904,28.1367-28.3457,28.1367
	H-71.1484c-15.6562,0-28.3477-12.5977-28.3477-28.1367V287.1875c0-15.5396,12.6914-28.1367,28.3477-28.1367H935.1504
	c15.6553,0,28.3457,12.5972,28.3457,28.1367V1440.8125z"/>
<rect x="424.5908" y="438.1118" fill="#FD1A16" stroke="#000000" stroke-miterlimit="10" width="25.499" height="124.4937"/>
<rect x="424.5908" y="1146.0762" fill="#FD1A16" stroke="#000000" stroke-miterlimit="10" width="25.499" height="160.0166"/>
<rect x="680.0801" y="840.6182" fill="#FD1A16" stroke="#000000" stroke-miterlimit="10" width="96.9932" height="25.499"/>
<rect x="89.1094" y="840.6182" fill="#FD1A16" stroke="#000000" stroke-miterlimit="10" width="96.9932" height="25.499"/>
<rect x="643.7124" y="563.6016" transform="matrix(0.6295 0.777 -0.777 0.6295 724.6578 -280.5149)" fill="#FD1A16" stroke="#000000" stroke-miterlimit="10" width="25.5" height="111.9595"/>
<rect x="191.2268" y="563.6013" transform="matrix(-0.6295 0.777 -0.777 -0.6295 813.8042 851.0938)" fill="#FD1A16" stroke="#000000" stroke-miterlimit="10" width="25.5004" height="111.9595"/>
<rect x="205.7161" y="1057.6309" transform="matrix(0.6823 0.7311 -0.7311 0.6823 899.9719 201.2361)" fill="#FD1A16" stroke="#000000" stroke-miterlimit="10" width="25.5004" height="156.787"/>
<rect x="643.7115" y="1051.1835" transform="matrix(-0.6823 0.7311 -0.7311 -0.6823 1930.1797 1420.3176)" fill="#FD1A16" stroke="#000000" stroke-miterlimit="10" width="25.5007" height="156.7874"/>
</svg>
